<svg viewBox="0 0 28.87 28.95">
  <path fill="currentColor" d="M22.17 28.95c1.64-.02 3.06-.58 4.25-1.72.58-.56 1.15-1.13 1.71-1.71.98-.99.98-2.36 0-3.35-1.16-1.17-2.32-2.33-3.49-3.49-.84-.83-1.87-.97-2.89-.4-.75.42-1.5.85-2.25 1.26-.72.4-1.38.31-1.96-.27l-7.92-7.92c-.59-.59-.68-1.25-.27-1.99.43-.77.87-1.53 1.29-2.3.51-.93.39-1.96-.35-2.71C9.08 3.11 7.86 1.89 6.62.68c-.89-.87-2.25-.87-3.16 0-.62.59-1.24 1.2-1.82 1.83A6.029 6.029 0 0 0 .8 9.64c1.5 2.61 3.16 5.11 5.09 7.42 3.73 4.48 8.13 8.17 13.2 11.05.96.54 1.98.83 3.08.83Z"/>
  <path fill="currentColor" d="M22.17 28.95c-1.1 0-2.13-.29-3.08-.83a47.896 47.896 0 0 1-13.2-11.05C3.96 14.75 2.3 12.26.8 9.65c-1.32-2.31-.98-5.2.85-7.15.59-.63 1.2-1.23 1.82-1.83.9-.86 2.26-.87 3.16 0 1.24 1.21 2.46 2.44 3.67 3.67.73.75.85 1.78.35 2.71-.42.77-.86 1.54-1.29 2.3-.41.74-.33 1.4.27 1.99l7.92 7.92c.58.58 1.24.67 1.96.27l2.25-1.26c1.02-.57 2.06-.43 2.89.4 1.17 1.16 2.33 2.32 3.49 3.49.98.99.97 2.36 0 3.35-.57.57-1.13 1.15-1.71 1.71-1.18 1.14-2.6 1.71-4.25 1.72Z"/>
</svg>