<svg data-name="Group 179" viewBox="0 0 93.03 85.215">
  <defs>
    <clipPath id="a">
      <path fill="none" d="M0 0h93.03v85.215H0z" data-name="Rectangle 29"/>
    </clipPath>
  </defs>
  <g clip-path="url(#a)" data-name="Group 35">
    <path fill="currentColor" d="m23.119 0 8.944 6.638A65.25 65.25 0 0 0 25.275 18.2a95.062 95.062 0 0 0-6.056 16.613 48.828 48.828 0 0 0-1.595 17.756 16.179 16.179 0 0 1 3.618-1.144 17.557 17.557 0 0 1 3.317-.3 15.392 15.392 0 0 1 10.689 4.2q4.6 4.184 4.611 11.4 0 8.385-5.044 13.442a16.717 16.717 0 0 1-12.28 5.044q-11.277 0-16.895-7.932Q-.005 69.343 0 57.485a72.139 72.139 0 0 1 2.757-18.2 104.565 104.565 0 0 1 7.932-20.645A92.811 92.811 0 0 1 23.119 0m53.152 0 8.944 6.638A65.044 65.044 0 0 0 78.43 18.2a95.064 95.064 0 0 0-6.059 16.613 48.744 48.744 0 0 0-1.591 17.76 16.155 16.155 0 0 1 3.614-1.144 17.6 17.6 0 0 1 3.321-.3 15.39 15.39 0 0 1 10.685 4.2c3.072 2.79 4.63 6.591 4.63 11.4q0 8.385-5.059 13.442a16.722 16.722 0 0 1-12.28 5.044q-11.277 0-16.895-7.932-5.652-7.94-5.641-19.8a72.283 72.283 0 0 1 2.753-18.2 104.565 104.565 0 0 1 7.932-20.645A92.812 92.812 0 0 1 76.271 0" data-name="Path 25"/>
  </g>
</svg>