<?xml version="1.0" standalone="no"?>
<!DOCTYPE svg PUBLIC "-//W3C//DTD SVG 20010904//EN"
 "http://www.w3.org/TR/2001/REC-SVG-20010904/DTD/svg10.dtd">
<svg version="1.0" xmlns="http://www.w3.org/2000/svg"
 width="2904.000000pt" height="2904.000000pt" viewBox="0 0 2904.000000 2904.000000"
 preserveAspectRatio="xMidYMid meet">
<metadata>
Created by potrace 1.14, written by Peter Selinger 2001-2017
</metadata>
<g transform="translate(0.000000,2904.000000) scale(0.100000,-0.100000)"
fill="#000000" stroke="none">
<path d="M14250 21929 c-1876 -116 -3560 -790 -4830 -1935 -149 -134 -441
-428 -569 -573 -116 -130 -294 -353 -398 -497 -728 -1002 -1171 -2146 -1328
-3424 -65 -533 -73 -1239 -20 -1785 134 -1371 613 -2630 1401 -3680 325 -434
738 -865 1159 -1210 1127 -925 2549 -1507 4100 -1680 376 -42 466 -47 937 -52
583 -7 944 11 1438 73 1132 140 2169 464 3044 948 1584 878 2562 2222 2756
3787 22 181 44 567 35 610 -8 35 -54 75 -103 89 -25 6 -476 10 -1345 10 -1088
0 -1313 -2 -1341 -14 -45 -19 -63 -62 -92 -224 -66 -360 -162 -650 -317 -957
-387 -760 -1065 -1334 -1977 -1673 -921 -342 -2139 -423 -3108 -206 -1280 286
-2339 1045 -3004 2154 -779 1297 -962 3046 -478 4553 412 1281 1298 2319 2465
2887 541 263 1104 414 1750 471 169 15 622 15 800 0 1033 -85 1926 -429 2624
-1011 664 -553 1094 -1293 1236 -2126 29 -169 47 -227 78 -249 19 -13 189 -15
1380 -15 1454 0 1416 -1 1431 48 10 32 -13 430 -34 597 -196 1529 -1104 2914
-2525 3851 -1106 729 -2457 1144 -4019 1234 -206 12 -947 11 -1146 -1z"/>
</g>
</svg>
